# xmcd
#
# Track frame offsets: 
#        150
#        10214
#        18465
#        31424
#        41606
#        54497
#        72758
#        88314
#        97206
#        106737
#        117835
#        127697
#        138574
#
# Disc length: 2016 seconds
#
# Revision: 0
# Processed by: cddbd v1.5.2PL0 Copyright (c) Steve Scherf et al.
# Submitted via: ExactAudioCopy v0.95b4
#
DISCID=aa07de0d
DTITLE=The Nitemares - Do the Calandraca Boogie!
DYEAR=1900
DGENRE=Rock and Roll
TTITLE0=Teenage Vamp
TTITLE1=Betty Joan
TTITLE2=Calandraca Boogie
TTITLE3=Spanish Love
TTITLE4=Nitemares Shuffle
TTITLE5=Lonesome Traveler
TTITLE6=It's Not True
TTITLE7=How Could I Know
TTITLE8=Your Strange Kind Of Lovin'
TTITLE9=Let's Spend The Night Together
TTITLE10=Here I Am Drunk Again
TTITLE11=Always Sad
TTITLE12=Beware Of The Fly
EXTD=
EXTT0=
EXTT1=
EXTT2=
EXTT3=
EXTT4=
EXTT5=
EXTT6=
EXTT7=
EXTT8=
EXTT9=
EXTT10=
EXTT11=
EXTT12=
PLAYORDER=
